Coordinates																																									
version=1																																									
nRows=14																																									
nColumns=42																																									
inDegrees=yes																																									
																																									
"Units are S.I. units (second, meters, Newtons, ...)"																																									
"If the header above contains a line with 'inDegrees', this indicates whether rotational values are in degrees (yes) or radians (no)."																																									
																																									
endheader																																									
time	pelvis_tilt	pelvis_list	pelvis_rotation	pelvis_tx	pelvis_ty	pelvis_tz	hip_flexion_r	hip_adduction_r	hip_rotation_r	knee_angle_r	knee_adduction_r	knee_angle_r_beta	ankle_angle_r	subtalar_angle_r	mtp_angle_r	hip_flexion_l	hip_adduction_l	hip_rotation_l	knee_angle_l	knee_adduction_l	knee_angle_l_beta	ankle_angle_l	subtalar_angle_l	mtp_angle_l	lumbar_extension	lumbar_bending	lumbar_rotation	arm_flex_r	arm_add_r	arm_rot_r	elbow_flex_r	pro_sup_r	wrist_flex_r	wrist_dev_r	arm_flex_l	arm_add_l	arm_rot_l	elbow_flex_l	pro_sup_l	wrist_flex_l	wrist_dev_l
0	0	0	0	0	0	0	1.0984217	1.7577121	-0.59019815	1.60613481	-0.02448661	0.02803234	5.35486779	0	0	1.26819216	-2.49634257	-0.52705804	1.58409955	0.19343284	0.02764775	5.37669612	0	0	0.06717883	0.03371705	-0.00093231	-12.46215508	-6.48517338	1.98734852	38.46196137	93.49385726	0	0	-6.53977982	-5.03030535	-8.38778139	36.52961386	92.79725671	0	0
0.01	0	0	0	0	0	0	1.21300452	1.76501213	-0.81487146	1.66591202	-0.03044675	0.02907565	5.39146816	0	0	1.37150088	-2.49380879	-0.52412811	1.61240431	0.19040626	0.02814176	5.40739434	0	0	0.18729932	0.02719013	-0.07420752	-12.42405727	-6.47231014	2.06622288	38.36694228	92.61210959	0	0	-6.55940774	-5.0566837	-8.21831551	36.53738763	91.75974776	0	0
0.02	0	0	0	0	0	0	1.30519845	1.81212644	-0.62598982	1.68149087	-0.01906786	0.02934755	5.32693709	0	0	1.41928141	-2.54564204	-0.66041759	1.60882707	0.18088182	0.02807933	5.36149968	0	0	0.23336327	0.08775741	0.04076552	-12.37329176	-6.52626296	2.14161172	38.40255098	91.97402916	0	0	-6.58665331	-5.07139973	-8.04853291	36.66072638	91.0030757	0	0
0.03	0	0	0	0	0	0	0.88559539	1.82615091	-0.64475977	1.56757204	-0.04887954	0.02735929	5.20249572	0	0	1.04581047	-2.54765267	-0.71006983	1.54008209	0.18494847	0.0268795	5.20079818	0	0	-0.13696441	0.04094197	-0.01865424	-12.41773231	-6.50625509	2.14145619	38.58016487	92.11677096	0	0	-6.66703387	-5.19915918	-7.72607131	36.93298062	90.67258532	0	0
0.04	0	0	0	0	0	0	1.11323452	1.86468718	-0.71434885	1.60111654	-0.06823333	0.02794476	5.31027063	0	0	1.28568044	-2.57361719	-0.69539509	1.59558167	0.17843566	0.02784815	5.30945994	0	0	0.11374967	0.0569344	-0.00017951	-12.41821486	-6.46740162	2.15912212	38.46239099	91.4328781	0	0	-6.620762	-5.17593123	-7.7411797	36.84069619	89.90051435	0	0
0.05	0	0	0	0	0	0	0.92164745	1.84950801	-0.65021704	1.54015909	-0.03547266	0.02688085	5.22077736	0	0	1.08321543	-2.56660559	-0.70029958	1.53763301	0.1613137	0.02683676	5.2171975	0	0	-0.07268699	0.07484566	0.04640591	-12.50492325	-6.464396	1.73917244	38.44165664	94.51640112	0	0	-6.63468259	-5.06243246	-8.23867728	36.6672317	92.4225775	0	0
0.06	0	0	0	0	0	0	0.906402	1.82836298	-0.58682646	1.5017387	0.00010176	0.02621028	5.25440211	0	0	1.07223132	-2.56473555	-0.69429958	1.51457187	0.16820982	0.02643427	5.27916736	0	0	-0.04426359	0.06476638	0.05805914	-12.49990377	-6.48670603	1.9525057	38.51998141	93.10364008	0	0	-6.64725239	-5.09440955	-8.04566533	36.80248681	91.0558478	0	0
0.07	0	0	0	0	0	0	1.22371749	1.82681144	-0.517662	1.58064084	0.00831805	0.02758739	5.30633366	0	0	1.34354515	-2.56092009	-0.76245927	1.55450427	0.16167324	0.02713122	5.37365788	0	0	0.2532094	0.10939528	0.1605667	-12.46807257	-6.52475688	2.03523979	38.39986537	92.14885843	0	0	-6.59760071	-4.9992967	-8.05096944	36.69166594	90.0345661	0	0
0.08	0	0	0	0	0	0	0.95338614	1.81969344	-0.61955779	1.48274256	-0.04827979	0.02587874	5.22081315	0	0	1.13353401	-2.52292066	-0.70897854	1.52016546	0.15325861	0.02653189	5.29100816	0	0	0.02849306	0.04770194	0.04803096	-12.53584129	-6.45137417	1.68361256	38.3547491	94.93881759	0	0	-6.66856834	-5.00211826	-8.4033064	36.63261528	92.61485915	0	0
0.09	0	0	0	0	0	0	1.38868006	1.83549499	-0.68631216	1.59574999	-0.06368205	0.02785109	5.4740986	0	0	1.56028475	-2.52934672	-0.77074575	1.62931556	0.1744394	0.02843692	5.55521941	0	0	0.50164523	0.04704352	0.01329314	-12.38039947	-6.36628631	1.77763753	37.98736615	92.70274951	0	0	-6.58875468	-4.97249058	-8.26676564	36.39207562	90.41828877	0	0
0.1	0	0	0	0	0	0	0.93354942	1.77169871	-0.61206307	1.45585361	-0.05499641	0.02540944	5.22045829	0	0	1.10950616	-2.46437425	-0.71445056	1.49884471	0.13891548	0.02615978	5.31745467	0	0	0.04626921	0.02366264	0.09515395	-12.58918426	-6.37785195	1.41687691	38.3638418	95.05392653	0	0	-6.62804513	-4.90690793	-8.59253078	36.48069339	92.97131537	0	0
0.11	0	0	0	0	0	0	1.23347373	1.76866347	-0.67957418	1.51186278	-0.06153738	0.02638698	5.33289852	0	0	1.40640071	-2.48990235	-0.49520205	1.53255433	0.21508742	0.02674812	5.45453587	0	0	0.39308376	0.01412596	0.01518505	-12.50605157	-6.3412995	1.61794988	38.16261668	93.20673799	0	0	-6.60331409	-4.95593033	-8.3852158	36.42879499	91.12441687	0	0
0.12	0	0	0	0	0	0	0.9327902	1.74632678	-0.65982918	1.4428943	-0.06319914	0.02518326	5.23185921	0	0	1.12441492	-2.44573331	-0.66682514	1.5020084	0.17261651	0.02621499	5.35141829	0	0	0.07048912	-0.00232702	-0.04433821	-12.53048875	-6.41728091	1.784229	38.20817545	95.59155625	0	0	-6.68026789	-4.87908852	-8.85910596	36.46058531	93.09104817	0	0
0.13	0	0	0	0	0	0	0.95725823	1.72011617	-0.58872098	1.42961316	-0.04469028	0.02495146	5.27816433	0	0	1.15222941	-2.42619815	-0.58567135	1.49133304	0.1729752	0.02602867	5.37167638	0	0	0.12647271	-0.01074519	-0.01282978	-12.55800176	-6.46143849	2.04925659	38.33758091	93.97251498	0	0	-6.60345829	-4.86820512	-8.69378395	36.44190972	91.51501391	0	0
